<svg width="71" height="70" viewBox="0 0 71 70" fill="none" xmlns="http://www.w3.org/2000/svg">
<rect x="0.829102" width="69.8803" height="70" fill="#212121"/>
<rect x="0.829102" width="69.8803" height="70" fill="url(#paint0_linear)"/>
<path d="M68.0302 48.3385L49.5922 29.7337L51.6386 19.6373C52.1666 19.8438 52.728 19.9517 53.2947 19.9558H53.3087C55.9123 19.9866 58.0479 17.8974 58.0788 15.2893C58.1096 12.6812 56.0239 10.542 53.4202 10.5111C50.8166 10.4803 48.681 12.5695 48.6502 15.1776C48.6436 15.7357 48.7358 16.2905 48.9226 16.8163L38.0911 18.1405L20.423 0.35C20.2062 0.128479 19.9104 0.00247917 19.6008 0C19.295 0.00160417 19.0023 0.123521 18.7855 0.3395L15.4825 3.6295C15.0278 4.08508 15.0278 4.82358 15.4825 5.27917L17.2598 7.08517C10.3742 19.7681 12.6107 35.4741 22.7617 45.7228C22.8549 45.8121 22.9629 45.8843 23.0808 45.9363C23.0074 46.3311 22.9691 46.7317 22.9667 47.1333V60.6667H8.9906C5.7761 60.6705 3.17102 63.28 3.16724 66.5V68.8333C3.16724 69.4776 3.68872 70 4.33191 70H57.9068C58.55 70 59.0715 69.4776 59.0715 68.8333V66.5C59.0677 63.28 56.4626 60.6705 53.2482 60.6667H39.2721V54.6688C41.4615 55.1288 43.6923 55.3633 45.9294 55.3688C51.2973 55.363 56.5798 54.0225 61.303 51.4675L63.0896 53.2677C63.3064 53.4892 63.6022 53.6152 63.9119 53.6177C64.2176 53.6161 64.5104 53.4941 64.7272 53.2782L68.0302 49.9882C68.4848 49.5326 68.4848 48.7941 68.0302 48.3385ZM51.6665 13.6348C52.5786 12.726 54.0535 12.7301 54.9607 13.6437C55.8679 14.5574 55.8639 16.0348 54.9518 16.9435C54.5152 17.3785 53.9244 17.6226 53.3086 17.6225H53.3016C52.0152 17.6158 50.9776 16.5658 50.9843 15.2771C50.9875 14.6602 51.2344 14.0699 51.671 13.6348H51.6665V13.6348ZM48.9249 21.301L47.6181 27.7445L45.0512 25.158L48.9249 21.301ZM47.6018 19.3282L43.409 23.5037L40.1654 20.237L47.6018 19.3282ZM53.2482 63C55.1779 63 56.7422 64.567 56.7422 66.5V67.6667H5.49658V66.5C5.49658 64.567 7.06088 63 8.9906 63H53.2482ZM36.9427 58.3333V60.6667H25.296V58.3333H36.9427ZM25.296 56V47.1333C25.296 44.303 27.9084 42 31.1194 42C34.3304 42 36.9427 44.303 36.9427 47.1333V56H25.296ZM39.2721 52.29V47.1333C39.2721 43.0162 35.615 39.6667 31.1194 39.6667C28.2126 39.622 25.4946 41.1041 23.9543 43.5738C15.0932 34.2249 13.0978 20.2875 18.9784 8.82073L59.6003 49.7455C53.3276 52.9419 46.1371 53.8418 39.2721 52.29ZM63.9247 50.7943L62.2837 49.1412L19.5891 6.11567L17.9411 4.46133L19.5891 2.81633L36.9171 20.272C36.9253 20.272 36.9299 20.2872 36.9381 20.293L65.5774 49.1493L63.9247 50.7943Z" fill="#212121"/>
<path d="M31.1299 44.3333H31.1194C29.1897 44.3304 27.623 45.895 27.6201 47.8281C27.6172 49.7611 29.1792 51.3304 31.1089 51.3333H31.1194C33.0491 51.3362 34.6157 49.7716 34.6186 47.8386C34.6215 45.9055 33.0596 44.3362 31.1299 44.3333ZM31.9451 48.6605C31.7259 48.8789 31.4287 49.0011 31.1194 49C30.4762 48.9966 29.9575 48.4716 29.9608 47.8273C29.9624 47.5189 30.0859 47.2237 30.3041 47.0061C30.5209 46.7902 30.8137 46.6682 31.1194 46.6666C31.7626 46.67 32.2813 47.195 32.2779 47.8393C32.2763 48.1477 32.1529 48.4429 31.9346 48.6605H31.9451Z" fill="#2196F3"/>
<defs>
<linearGradient id="paint0_linear" x1="35.7693" y1="0" x2="35.7693" y2="70" gradientUnits="userSpaceOnUse">
<stop stop-color="white"/>
<stop offset="1" stop-color="white" stop-opacity="0"/>
</linearGradient>
</defs>
</svg>
