<svg width="71" height="70" viewBox="0 0 71 70" fill="none" xmlns="http://www.w3.org/2000/svg">
<g clip-path="url(#clip0)">
<rect x="0.290527" width="69.8803" height="70" fill="#212121"/>
<rect x="0.290527" width="69.8803" height="70" fill="url(#paint0_linear)"/>
<path d="M70.1141 9.89639C69.9767 9.47516 69.6133 9.16726 69.1743 9.103L65.0024 8.49514L63.1354 4.70811C62.7441 3.91007 61.4384 3.91007 61.0471 4.70811L59.1801 8.49514L55.0081 9.10314C54.5691 9.16726 54.2057 9.4742 54.0671 9.89653C53.9308 10.3189 54.0437 10.7832 54.3617 11.0924L57.3818 14.0407L56.669 18.2034C56.5945 18.6409 56.7739 19.0831 57.1315 19.3445C57.4937 19.6082 57.9665 19.6408 58.359 19.4331L62.0907 17.4672L65.8224 19.4331C65.9925 19.5229 66.18 19.5672 66.3652 19.5672C66.6063 19.5672 66.8474 19.4926 67.0501 19.3444C67.4088 19.0831 67.5881 18.6408 67.5125 18.2033L66.7998 14.0405L69.8198 11.0923C70.1362 10.7819 70.2505 10.3187 70.1141 9.89639ZM64.7357 12.7991C64.462 13.0663 64.3362 13.4536 64.4014 13.8316L64.8184 16.2688L62.6335 15.1184C62.4635 15.0286 62.2772 14.9843 62.0907 14.9843C61.9044 14.9843 61.7192 15.0286 61.5479 15.1184L59.3629 16.2688L59.7799 13.8316C59.8451 13.4536 59.7193 13.0675 59.4456 12.7991L57.6765 11.0725L60.12 10.7166C60.4997 10.6618 60.827 10.4226 60.997 10.0784L62.0895 7.86171L63.1819 10.0784C63.352 10.4225 63.6793 10.6618 64.059 10.7166L66.5025 11.0725L64.7357 12.7991Z" fill="#2196F3"/>
<path d="M57.3597 44.8923H55.0303V47.2257H57.3597V44.8923Z" fill="#2196F3"/>
<path d="M57.3597 49.5591H55.0303V51.8925H57.3597V49.5591Z" fill="#2196F3"/>
<path d="M59.6893 47.2257H57.3599V49.5591H59.6893V47.2257Z" fill="#2196F3"/>
<path d="M55.0306 47.2257H52.7012V49.5591H55.0306V47.2257Z" fill="#2196F3"/>
<path d="M49.2071 57.7259H46.8777V60.0593H49.2071V57.7259Z" fill="#2196F3"/>
<path d="M49.2071 62.3926H46.8777V64.726H49.2071V62.3926Z" fill="#2196F3"/>
<path d="M51.5365 60.0593H49.207V62.3927H51.5365V60.0593Z" fill="#2196F3"/>
<path d="M46.8775 60.0593H44.5481V62.3927H46.8775V60.0593Z" fill="#2196F3"/>
<path d="M35.2308 53.0592H32.9014V55.3926H35.2308V53.0592Z" fill="#2196F3"/>
<path d="M35.2308 57.7259H32.9014V60.0593H35.2308V57.7259Z" fill="#2196F3"/>
<path d="M37.5601 55.3925H35.2307V57.7259H37.5601V55.3925Z" fill="#2196F3"/>
<path d="M32.9012 55.3925H30.5718V57.7259H32.9012V55.3925Z" fill="#2196F3"/>
<path d="M13.1016 13.3918H10.7722V15.7252H13.1016V13.3918Z" fill="#2196F3"/>
<path d="M13.1016 18.0587H10.7722V20.3921H13.1016V18.0587Z" fill="#2196F3"/>
<path d="M15.431 15.7252H13.1016V18.0587H15.431V15.7252Z" fill="#2196F3"/>
<path d="M10.7723 15.7252H8.44287V18.0587H10.7723V15.7252Z" fill="#2196F3"/>
<path d="M54.2616 30.9738C53.6339 30.1256 52.7126 29.5797 51.6667 29.4326C50.6162 29.2833 49.5796 29.5597 48.741 30.2026L46.0074 32.3014L46.0062 32.3026L41.8622 35.4025L38.8969 34.2195C44.1845 31.843 47.8802 26.545 47.8802 20.3942C47.8802 12.0314 41.0609 5.22739 32.6786 5.22739C24.2964 5.22739 17.4772 12.0314 17.4772 20.3942C17.4772 23.4253 18.3821 26.244 19.9231 28.6158L13.8876 28.5633C13.8841 28.5633 13.8807 28.5633 13.8771 28.5633C13.8584 28.5633 13.8434 28.5726 13.8259 28.5738C13.7106 28.5785 13.5976 28.6019 13.487 28.6415C13.4591 28.652 13.43 28.6579 13.4032 28.6706C13.3893 28.6765 13.3753 28.6776 13.3613 28.6846L6.30098 32.1764C6.29976 32.1764 6.29866 32.1764 6.29866 32.1775L2.16392 34.1693C2.11847 34.1891 2.07193 34.2159 2.02648 34.2463C0.378396 35.3452 -0.182976 37.5036 0.71975 39.2676C1.20073 40.2056 2.01952 40.8964 3.02584 41.2125C3.41373 41.3337 3.80968 41.3933 4.20331 41.3933C4.83579 41.3933 5.46241 41.2382 6.03647 40.9314L9.06703 39.3167L14.0111 36.7593L16.9741 36.7418L5.09075 48.5884C5.08966 48.5896 5.08843 48.5896 5.0872 48.5907L2.16378 51.5074C1.47316 52.1958 1.09345 53.1092 1.09345 54.0835C1.09345 55.0565 1.47316 55.9723 2.16378 56.6619C2.87311 57.3689 3.806 57.7236 4.73889 57.7236C5.67301 57.7236 6.60467 57.3689 7.31631 56.6619L10.1861 53.7988L13.9877 50.9556L15.9549 52.9179L12.1078 56.7552C12.1067 56.7564 12.1055 56.7564 12.1043 56.7575L9.18086 59.6741C8.49024 60.3625 8.11053 61.276 8.11053 62.2502C8.11053 63.2233 8.49024 64.139 9.18086 64.8287C9.89019 65.5356 10.8243 65.8903 11.7572 65.8903C12.6901 65.8903 13.6242 65.5356 14.3346 64.8287L17.2591 61.912L21.9376 57.2453C21.9389 57.2441 21.9389 57.243 21.94 57.2417L24.1448 55.0542L24.1366 55.046C24.1505 55.0321 24.1703 55.0273 24.1844 55.0122L35.4656 42.6349L43.0454 43.7153C43.1001 43.7235 43.1548 43.7269 43.2096 43.7269C43.3506 43.7269 43.4868 43.6931 43.6184 43.6429C43.6568 43.629 43.6906 43.6103 43.7267 43.5917C43.7686 43.5706 43.8128 43.559 43.8526 43.5322L50.8698 38.8655C50.8954 38.848 50.9094 38.82 50.9338 38.8014C50.9618 38.7792 50.9967 38.7699 51.0222 38.7453L53.7988 36.1401C55.2435 34.7841 55.4426 32.5628 54.2616 30.9738ZM4.9428 38.8722C4.56432 39.0752 4.13452 39.116 3.72342 38.9854C3.31574 38.8583 2.98503 38.5793 2.79163 38.2025C2.4399 37.5165 2.64367 36.6811 3.25978 36.2297L6.12846 34.8471L6.81909 36.869L7.10913 37.7183L4.9428 38.8722ZM12.5797 34.8741L9.19861 36.6241L8.64078 34.9907L8.24019 33.817L12.6661 31.6282L12.5797 34.8741ZM45.5532 20.3919C45.5532 22.4009 45.0745 24.2957 44.2452 25.9908L35.1141 21.8362C35.0186 20.5821 34.3688 19.4842 33.3927 18.8005L36.5898 8.16853C41.7821 9.82298 45.5532 14.6752 45.5532 20.3919ZM19.809 20.3919C19.809 13.3159 25.5835 7.55834 32.6811 7.55834C33.2332 7.55834 33.7735 7.60496 34.3082 7.67264L31.181 18.0714C31.1391 18.0701 31.0995 18.0585 31.0563 18.0585C28.8014 18.0585 26.9671 19.8902 26.9671 22.1419C26.9671 24.3936 28.8014 26.2254 31.0563 26.2254C32.5727 26.2254 33.883 25.3866 34.59 24.1591L43.0246 27.9976C40.6777 31.1616 36.9216 33.2255 32.681 33.2255C25.5835 33.2255 19.809 27.4679 19.809 20.3919ZM32.8162 22.1419C32.8162 23.1068 32.0265 23.892 31.0563 23.892C30.0862 23.892 29.2965 23.1068 29.2965 22.1419C29.2965 21.1771 30.0862 20.3919 31.0563 20.3919C32.0265 20.3919 32.8162 21.1771 32.8162 22.1419ZM5.67314 55.0075C5.15722 55.5196 4.32206 55.5185 3.80736 55.0087C3.55923 54.7601 3.42302 54.4324 3.42302 54.0835C3.42302 53.7358 3.55923 53.408 3.80736 53.1619L5.90831 51.0652L7.76713 52.9192L5.67314 55.0075ZM12.6915 63.1743C12.1755 63.6865 11.3393 63.6877 10.8244 63.1756C10.5763 62.927 10.4401 62.5993 10.4401 62.2504C10.4401 61.9027 10.5763 61.5748 10.8244 61.3287L12.9268 59.231L13.8061 60.1073L14.7868 61.085L12.6915 63.1743ZM20.2946 55.5862C20.2934 55.5873 20.2923 55.5873 20.2911 55.5885L16.4371 59.4386L15.5577 58.5623L14.577 57.5846L18.4275 53.7451C18.4275 53.7451 18.4275 53.7451 18.4275 53.744C18.4287 53.7428 18.4298 53.7428 18.431 53.7417C18.5184 53.6542 18.5731 53.5492 18.6267 53.4454C18.6419 53.4151 18.671 53.3894 18.6838 53.3579C18.72 53.2681 18.7257 53.1713 18.7397 53.0767C18.7467 53.0229 18.77 52.9729 18.77 52.9179C18.77 52.8397 18.7421 52.764 18.7258 52.6869C18.7119 52.6169 18.7119 52.5457 18.685 52.4781C18.6408 52.3685 18.565 52.2717 18.4859 52.1771C18.4638 52.1514 18.4556 52.1187 18.4311 52.0942C18.4311 52.0942 18.4311 52.0942 18.4299 52.0942C18.4287 52.0931 18.4287 52.0907 18.4276 52.0896L14.9184 48.5895C14.8811 48.5522 14.8333 48.537 14.7914 48.5056C14.7298 48.4577 14.6704 48.4134 14.6016 48.3795C14.5353 48.3468 14.4677 48.327 14.3978 48.3083C14.3233 48.2872 14.2511 48.2709 14.173 48.2651C14.1019 48.2604 14.0356 48.2674 13.9646 48.2756C13.8865 48.2849 13.8132 48.2954 13.7375 48.3199C13.6641 48.3433 13.599 48.3794 13.5314 48.4179C13.4883 48.4424 13.4394 48.4506 13.3986 48.4809L9.52604 51.3767L7.55885 49.4143L12.7976 44.1946L22.3202 53.576L20.2946 55.5862ZM35.1852 40.2372C35.1515 40.2326 35.12 40.2454 35.0863 40.2431C35.0012 40.2385 34.9198 40.2443 34.8347 40.2583C34.7684 40.2699 34.7055 40.2828 34.6425 40.3049C34.568 40.3306 34.5005 40.3656 34.4317 40.4076C34.3664 40.4472 34.3071 40.4892 34.25 40.5417C34.222 40.5662 34.1883 40.5779 34.1627 40.6058L23.9028 51.8621L14.4513 42.5507L20.6381 36.3859C21.0936 35.9309 21.0959 35.1924 20.6417 34.735C20.4123 34.5052 20.1106 34.392 19.809 34.3932V34.3921L14.9638 34.4213L15.0244 30.9049L21.8029 30.9633C24.5656 33.7937 28.4183 35.5589 32.6811 35.5589C33.6361 35.5589 34.5679 35.4598 35.4751 35.2905C35.5625 35.3605 35.6486 35.4318 35.7582 35.4761L41.0203 37.5761L41.3534 39.2351L41.7423 41.1717L35.1852 40.2372ZM44.0101 40.6269L43.3264 37.219L46.485 34.8564L47.312 35.9554L48.5524 37.6051L44.0101 40.6269ZM52.2071 34.4341L50.3773 36.1515L48.3438 33.4471L50.1595 32.053C50.4984 31.7917 50.9259 31.6855 51.3452 31.7403C51.7668 31.7998 52.1395 32.0203 52.3934 32.3621C52.8663 33.0003 52.7859 33.8905 52.2071 34.4341Z" fill="#212121"/>
<path d="M29.9943 40.5651L25.3145 35.8984C24.8615 35.4446 24.1253 35.4446 23.6711 35.8984L18.9926 40.5651C18.7737 40.7856 18.6501 41.0819 18.6501 41.3922C18.6501 41.7026 18.7724 42.0001 18.9926 42.2194L23.6711 46.8861C23.8982 47.1124 24.1964 47.2256 24.4934 47.2256C24.7904 47.2256 25.0885 47.1124 25.3145 46.8861L29.9943 42.2194C30.2132 42.0001 30.3378 41.7026 30.3378 41.3922C30.3378 41.0819 30.2143 40.7844 29.9943 40.5651ZM24.4934 44.4128L21.4652 41.3922L24.4934 38.3717L27.5228 41.3922L24.4934 44.4128Z" fill="#212121"/>
<path d="M37.7733 11.0923L37.2107 13.358C37.3656 13.3966 41.0053 14.3463 41.0053 18.0586H43.3347C43.3346 13.6461 39.6974 11.5718 37.7733 11.0923Z" fill="#212121"/>
<path d="M43.3346 20.3919H41.0051V22.7253H43.3346V20.3919Z" fill="#212121"/>
</g>
<defs>
<linearGradient id="paint0_linear" x1="35.2307" y1="0" x2="35.2307" y2="70" gradientUnits="userSpaceOnUse">
<stop stop-color="white"/>
<stop offset="1" stop-color="white" stop-opacity="0"/>
</linearGradient>
<clipPath id="clip0">
<rect x="0.290527" width="69.8803" height="70" fill="white"/>
</clipPath>
</defs>
</svg>
