<svg width="71" height="70" viewBox="0 0 71 70" fill="none" xmlns="http://www.w3.org/2000/svg">
<g clip-path="url(#clip0)">
<rect x="0.316406" width="69.8803" height="70" fill="#212121"/>
<rect x="0.316406" width="69.8803" height="70" fill="url(#paint0_linear)"/>
<path d="M68.6609 33.4715C68.6572 14.9819 53.6907 -0.00373771 35.2322 6.99302e-07C16.7742 0.00373911 1.81414 14.9963 1.81787 33.4859C1.82107 48.0502 11.2231 60.9413 25.0736 65.3713C25.2059 65.413 25.3434 65.4343 25.4815 65.4338C25.7449 65.4333 26.0029 65.3628 26.2295 65.2287C26.5243 65.0541 26.7445 64.7764 26.8479 64.449L35.2882 37.6521C37.5956 37.6404 39.4563 35.7568 39.444 33.4459C39.4323 31.1345 37.5524 29.2706 35.245 29.2824C34.6244 29.285 34.0118 29.4282 33.4541 29.7011L22.304 18.5302C21.7506 17.9951 20.8693 18.0106 20.3351 18.5644C19.8136 19.1054 19.8136 19.962 20.3351 20.503L31.4794 31.6792C30.6242 33.4277 31.1131 35.5383 32.6507 36.7303L24.6087 62.2647C8.7157 56.4002 0.577777 38.7405 6.43224 22.8203C12.2867 6.90002 29.9162 -1.25183 45.8092 4.61266C61.7023 10.4771 69.8402 28.1374 63.9857 44.0571C61.1254 51.8351 55.2486 58.1252 47.6902 61.4989L46.8211 57.3989C46.6623 56.6454 45.9228 56.1636 45.1705 56.3233C44.9333 56.3741 44.7131 56.4857 44.5318 56.6475L36.1529 64.1409C35.5782 64.653 35.527 65.5347 36.0388 66.1105C36.2052 66.2974 36.4184 66.4362 36.6573 66.5126L47.3548 69.9327C48.0868 70.1682 48.8711 69.765 49.1062 69.0312C49.1808 68.7994 49.1931 68.5527 49.143 68.3145L48.2889 64.2915C60.6584 59.0678 68.6897 46.918 68.6609 33.4715V33.4715ZM35.2396 32.0766C36.0084 32.0766 36.6322 32.7014 36.6322 33.4715C36.6322 34.2422 36.0084 34.8665 35.2396 34.8665C34.4703 34.8665 33.8471 34.2422 33.8471 33.4715C33.8471 32.7014 34.4703 32.0766 35.2396 32.0766ZM39.8263 64.5916L44.5958 60.3298L45.9121 66.543L39.8263 64.5916Z" fill="#212121"/>
<path d="M33.8469 6.9673V9.75722C33.8469 10.5279 34.4702 11.1522 35.2395 11.1522C36.0083 11.1522 36.6321 10.5279 36.6321 9.75722V6.9673C36.6321 6.19719 36.0083 5.57234 35.2395 5.57234C34.4702 5.57234 33.8469 6.19719 33.8469 6.9673Z" fill="#2196F3"/>
<path d="M8.78051 32.0765C8.01119 32.0765 7.38794 32.7014 7.38794 33.4715C7.38794 34.2422 8.01119 34.8665 8.78051 34.8665H11.5657C12.335 34.8665 12.9582 34.2422 12.9582 33.4715C12.9582 32.7014 12.335 32.0765 11.5657 32.0765H8.78051Z" fill="#2196F3"/>
<path d="M61.6977 34.8665C62.4671 34.8665 63.0903 34.2422 63.0903 33.4715C63.0903 32.7014 62.4671 32.0765 61.6977 32.0765H58.9126C58.1438 32.0765 57.52 32.7014 57.52 33.4715C57.52 34.2422 58.1438 34.8665 58.9126 34.8665H61.6977Z" fill="#2196F3"/>
</g>
<defs>
<linearGradient id="paint0_linear" x1="35.2566" y1="0" x2="35.2566" y2="70" gradientUnits="userSpaceOnUse">
<stop stop-color="white"/>
<stop offset="1" stop-color="white" stop-opacity="0"/>
</linearGradient>
<clipPath id="clip0">
<rect x="0.316406" width="69.8803" height="70" fill="white"/>
</clipPath>
</defs>
</svg>
