<svg width="71" height="70" viewBox="0 0 71 70" fill="none" xmlns="http://www.w3.org/2000/svg">
<g clip-path="url(#clip0)">
<rect x="0.803223" width="69.8803" height="70" fill="#212121"/>
<rect x="0.803223" width="69.8803" height="70" fill="url(#paint0_linear)"/>
<path d="M33.397 32.7351H35.7251V43.2296H33.397V32.7351Z" fill="#2196F3"/>
<path d="M42.7095 37.3993H45.0376V43.2296H42.7095V37.3993Z" fill="#2196F3"/>
<path d="M24.0845 40.8975H26.4126V43.2296H24.0845V40.8975Z" fill="#2196F3"/>
<path d="M17.1001 39.7314H19.4282V43.2295H17.1001V39.7314Z" fill="#2196F3"/>
<path d="M4.29541 61.8865H60.1704C62.099 61.8865 63.6626 60.3202 63.6626 58.3883V53.7241C63.6626 51.7922 62.099 50.2259 60.1704 50.2259H59.0064V21.1468L65.6184 14.8724C67.1531 15.6303 69.0106 15.1702 70.0149 13.7815C71.0199 12.3934 70.8789 10.4821 69.6819 9.25681C68.4848 8.03154 66.5807 7.84878 65.1728 8.8241C63.7655 9.79999 63.2653 11.6498 63.9883 13.2036L59.0064 17.9345V15.2442C59.0064 13.3124 57.4427 11.7461 55.5142 11.7461H8.95166C7.02311 11.7461 5.45947 13.3124 5.45947 15.2442V50.2259H4.29541C2.36686 50.2259 0.803223 51.7922 0.803223 53.7241V58.3883C0.803223 60.3202 2.36686 61.8865 4.29541 61.8865ZM67.1548 10.58C67.7976 10.58 68.3189 11.1021 68.3189 11.7461C68.3189 12.39 67.7976 12.9121 67.1548 12.9121C66.5119 12.9121 65.9907 12.39 65.9907 11.7461C65.9907 11.1021 66.5119 10.58 67.1548 10.58ZM7.7876 15.2442C7.7876 14.6003 8.30881 14.0782 8.95166 14.0782H55.5142C56.157 14.0782 56.6782 14.6003 56.6782 15.2442V20.1413L54.3501 22.3573V17.5764C54.3501 16.9324 53.8289 16.4103 53.186 16.4103H11.2798C10.6369 16.4103 10.1157 16.9324 10.1157 17.5764V46.7278C10.1157 47.3717 10.6369 47.8938 11.2798 47.8938H53.186C53.8289 47.8938 54.3501 47.3717 54.3501 46.7278V25.5651L56.6782 23.3554V50.2259H7.7876V15.2442ZM18.2642 30.403C16.6892 30.3984 15.3063 31.4495 14.8874 32.9702C14.4685 34.491 15.117 36.104 16.4715 36.9091C17.8254 37.7142 19.5504 37.512 20.6821 36.4149L24.7285 38.4486C25.1985 38.6844 25.7686 38.5739 26.1182 38.1805L34.7196 28.4871L43.175 34.8338C43.6286 35.1742 44.2618 35.1378 44.6733 34.7478L52.022 27.7748V45.5617H12.4439V18.7424H52.022V24.5619L43.786 32.3747L35.2596 25.9716C34.7753 25.6084 34.0938 25.6767 33.6914 26.1293L24.9717 35.9571L21.712 34.3242C21.7359 34.1841 21.7507 34.0429 21.7564 33.9011C21.7564 31.9693 20.1927 30.403 18.2642 30.403ZM19.4282 33.9011C19.4282 34.5451 18.907 35.0672 18.2642 35.0672C17.6213 35.0672 17.1001 34.5451 17.1001 33.9011C17.1001 33.2572 17.6213 32.7351 18.2642 32.7351C18.907 32.7351 19.4282 33.2572 19.4282 33.9011ZM26.4126 52.558H38.0532V53.7241C38.0532 54.368 37.532 54.8902 36.8892 54.8902H27.5767C26.9338 54.8902 26.4126 54.368 26.4126 53.7241V52.558ZM3.13135 53.7241C3.13135 53.0801 3.65256 52.558 4.29541 52.558H24.0845V53.7241C24.0845 55.6559 25.6481 57.2223 27.5767 57.2223H36.8892C38.8177 57.2223 40.3814 55.6559 40.3814 53.7241V52.558H60.1704C60.8133 52.558 61.3345 53.0801 61.3345 53.7241V58.3883C61.3345 59.0323 60.8133 59.5544 60.1704 59.5544H4.29541C3.65256 59.5544 3.13135 59.0323 3.13135 58.3883V53.7241Z" fill="#212121"/>
</g>
<defs>
<linearGradient id="paint0_linear" x1="35.7434" y1="0" x2="35.7434" y2="70" gradientUnits="userSpaceOnUse">
<stop stop-color="white"/>
<stop offset="1" stop-color="white" stop-opacity="0"/>
</linearGradient>
<clipPath id="clip0">
<rect x="0.803223" width="69.8803" height="70" fill="white"/>
</clipPath>
</defs>
</svg>
